<?xml version="1.0" standalone="no"?>
<!DOCTYPE svg PUBLIC "-//W3C//DTD SVG 20010904//EN"
 "http://www.w3.org/TR/2001/REC-SVG-20010904/DTD/svg10.dtd">
<svg version="1.0" xmlns="http://www.w3.org/2000/svg"
 width="260.000000pt" height="260.000000pt" viewBox="0 0 260.000000 260.000000"
 preserveAspectRatio="xMidYMid meet">
<metadata>
Created by potrace 1.11, written by Peter Selinger 2001-2013
</metadata>
<g transform="translate(0.000000,260.000000) scale(0.100000,-0.100000)"
fill="#000000" stroke="none">
<path d="M0 1300 l0 -1300 1300 0 1300 0 0 1300 0 1300 -1300 0 -1300 0 0
-1300z m1242 706 c10 -5 95 -191 214 -469 108 -254 199 -470 202 -480 2 -10 9
-16 15 -14 6 2 101 218 211 480 159 378 204 477 220 481 12 3 105 9 208 13
174 6 188 5 194 -12 12 -30 -10 -48 -81 -66 -92 -22 -111 -44 -120 -141 -3
-40 -5 -275 -3 -523 2 -359 6 -455 17 -477 17 -33 60 -55 128 -64 56 -7 77
-22 71 -51 -3 -17 -23 -18 -325 -18 -341 -1 -347 0 -323 44 6 12 27 21 61 25
70 9 114 29 131 58 10 18 14 118 16 456 3 393 1 433 -13 430 -18 -3 -294 -642
-375 -868 -49 -136 -66 -163 -96 -145 -8 6 -113 233 -232 505 -119 272 -221
501 -225 508 -25 38 -28 -5 -25 -410 3 -370 5 -428 20 -460 19 -42 58 -66 123
-75 48 -6 70 -28 59 -58 -6 -14 -23 -15 -148 -10 -77 3 -206 2 -285 -2 l-144
-8 -13 -62 c-27 -135 -124 -261 -243 -316 -115 -54 -285 -48 -369 13 -48 34
-78 102 -68 153 19 102 163 125 202 31 13 -30 13 -38 -1 -64 -34 -66 -12 -90
83 -90 107 0 164 64 183 206 6 50 9 300 7 689 -3 597 -3 611 -24 650 -22 42
-69 68 -146 80 -39 6 -53 26 -39 53 8 16 48 17 463 17 249 -1 461 -4 470 -9z"/>
</g>
</svg>
