<svg xmlns="http://www.w3.org/2000/svg" xmlns:xlink="http://www.w3.org/1999/xlink" viewBox="0 0 185 88">
  <defs>
    <linearGradient id="a" x1="92.04" y1="77.13" x2="145.2" y2="23.97" gradientUnits="userSpaceOnUse">
      <stop offset="0" stop-color="#d81e75"/>
      <stop offset="1" stop-color="#ff5fa8"/>
    </linearGradient>
  </defs>
  <title>Artboard 1</title>
  <path d="M91,3.35V74.87A3.28,3.28,0,0,0,94.41,78h71.52a3.26,3.26,0,0,0,3.25-3.36C169.2,39,130.22.13,94.5.07A3.41,3.41,0,0,0,91,3.35Z" fill="url(#a)"/>
  <path d="M0,55.34V74.87A3.15,3.15,0,0,0,3.26,78H74.87A3,3,0,0,0,78,74.87V3.26A3.15,3.15,0,0,0,74.87,0H55.34A3.33,3.33,0,0,0,52,3.26V22.79A3.15,3.15,0,0,1,48.83,26H29.3A3.33,3.33,0,0,0,26,29.3V48.83A3.15,3.15,0,0,1,22.79,52H3.26A3.33,3.33,0,0,0,0,55.34Z" fill="#d81e75"/>
  <path d="M74.87,0H55.34A3.33,3.33,0,0,0,52,3.26V22.79A3.15,3.15,0,0,1,48.83,26H29.3A3.33,3.33,0,0,0,26,29.3V78H74.87A3,3,0,0,0,78,74.87V3.26A3.15,3.15,0,0,0,74.87,0Z" fill="#f38" opacity="0.8"/>
  <path d="M74.87,0H55.34A3.33,3.33,0,0,0,52,3.26V78H74.87A3,3,0,0,0,78,74.87V3.26A3.15,3.15,0,0,0,74.87,0Z" fill="#ff5fa8" opacity="0.8"/>
</svg>
